# xmcd
#
# Track frame offsets: 
#        150
#        21324
#        48066
#        62524
#        75199
#        90977
#        101119
#        121443
#        139609
#        163887
#
# Disc length: 2370 seconds
#
# Revision: 0
# Processed by: cddbd v1.5.2PL0 Copyright (c) Steve Scherf et al.
# Submitted via: ExactAudioCopy v0.95b4
#
DISCID=7309400a
DTITLE=Chelle and Friends - Sweetbread
DYEAR=2007
DGENRE=Soul
TTITLE0=Sea Line Woman
TTITLE1=Come Ye
TTITLE2=My God is a Rock
TTITLE3=Universal Soldier
TTITLE4=John the Revelator
TTITLE5=How Long?
TTITLE6=Doncha Hear Your Poor Mother Calling?
TTITLE7=Be My Husband
TTITLE8=Four Women
TTITLE9=Sweetbread
EXTD=
EXTT0=
EXTT1=
EXTT2=
EXTT3=
EXTT4=
EXTT5=
EXTT6=
EXTT7=
EXTT8=
EXTT9=
PLAYORDER=
